<svg xmlns="http://www.w3.org/2000/svg" viewBox="0 0 556.88 400"><path fill="#F2295B" d="M359.5 6.7c3.4-4 8.4-6.5 13.6-6.7 5.3-.2 10.4 1.9 14.1 5.7l35.9 36.9c6.7 6.9 7.1 17.7.9 25.1L330.2 179c-9.3 11-9.3 27.1-.1 38.2L427.4 334c6.2 7.4 5.6 18.5-1.3 25.3l-35.2 34.6c-3.2 3.2-9.6 6.1-14.2 6.1h-.4c-5.2-.2-10-2.6-13.4-6.5L236 239.9c-20-24.2-20-59.2-.1-83.4L359.5 6.7zm-136 383.1H15c-8.3 0-15-6.7-15-15v-53.2c0-8.3 6.7-15 15-15h208.5c8.3 0 15 6.7 15 15v53.2c0 8.2-6.7 15-15 15zm0-296.5H15c-8.3 0-15-6.7-15-15V25.1c0-8.3 6.7-15 15-15h208.5c8.3 0 15 6.7 15 15v53.2c0 8.3-6.7 15-15 15zm-82.3 148.2H15c-8.3 0-15-6.7-15-15v-53.2c0-8.3 6.7-15 15-15h126.2c8.3 0 15 6.7 15 15v53.2c0 8.3-6.7 15-15"/></svg>
