<?xml version="1.0" encoding="iso-8859-1"?>
<!-- Generator: Adobe Illustrator 19.0.0, SVG Export Plug-In . SVG Version: 6.00 Build 0)  -->
<svg fill="#008afb" version="1.1" id="Capa_1" xmlns="http://www.w3.org/2000/svg" xmlns:xlink="http://www.w3.org/1999/xlink" x="0px" y="0px"
	 viewBox="0 0 419.84 419.84" style="enable-background:new 0 0 419.84 419.84;" xml:space="preserve">
<g>
	<g>
		<path d="M341.248,31.744h-44.544V15.36c0-8.704-6.656-15.36-15.36-15.36s-15.36,6.656-15.36,15.36v16.384h-40.96V15.36
			c0-8.704-6.656-15.36-15.36-15.36s-15.36,6.656-15.36,15.36v16.384h-40.96V15.36c0-8.704-6.656-15.36-15.36-15.36
			c-8.704,0-15.36,6.656-15.36,15.36v16.384H78.08c-19.968,0-35.84,15.872-35.84,35.84V384c0,19.968,15.872,35.84,35.84,35.84
			h263.68c19.968,0,35.84-15.872,35.84-35.84V67.584C377.088,47.616,361.216,31.744,341.248,31.744z M154.88,181.248h109.568
			c8.704,0,15.36,6.656,15.36,15.36c0,8.704-6.656,15.36-15.36,15.36H154.88c-8.704,0-15.36-6.656-15.36-15.36
			C139.52,187.904,146.176,181.248,154.88,181.248z M292.608,281.6H126.72c-8.704,0-15.36-6.656-15.36-15.36
			c0-8.704,6.656-15.36,15.36-15.36h166.4c8.704,0,15.36,6.656,15.36,15.36C308.48,274.944,301.312,281.6,292.608,281.6z"/>
	</g>
</g>
<g>
</g>
<g>
</g>
<g>
</g>
<g>
</g>
<g>
</g>
<g>
</g>
<g>
</g>
<g>
</g>
<g>
</g>
<g>
</g>
<g>
</g>
<g>
</g>
<g>
</g>
<g>
</g>
<g>
</g>
</svg>
